<svg xmlns="http://www.w3.org/2000/svg" version="1.1" xmlns:xlink="http://www.w3.org/1999/xlink" xmlns:svgjs="http://svgjs.dev/svgjs" width="1440" height="560" preserveAspectRatio="none" viewBox="0 0 1440 560"><g mask="url(&quot;#SvgjsMask1010&quot;)" fill="none"><rect width="1440" height="560" x="0" y="0" fill="#0e2a47"></rect><path d="M 0,29 C 41.2,57.6 123.6,161.4 206,172 C 288.4,182.6 329.6,85.8 412,82 C 494.4,78.2 535.6,163.8 618,153 C 700.4,142.2 741.6,36.4 824,28 C 906.4,19.6 947.6,102.8 1030,111 C 1112.4,119.2 1154,69.4 1236,69 C 1318,68.6 1399.2,101 1440,109L1440 560L0 560z" fill="rgba(20, 83, 188, 1)"></path><path d="M 0,287 C 57.6,276.6 172.8,219.8 288,235 C 403.2,250.2 460.8,360.8 576,363 C 691.2,365.2 748.8,256.6 864,246 C 979.2,235.4 1036.8,312.8 1152,310 C 1267.2,307.2 1382.4,247.6 1440,232L1440 560L0 560z" fill="#184a7e"></path><path d="M 0,556 C 96,525 288,410.6 480,401 C 672,391.4 768,508.8 960,508 C 1152,507.2 1344,419.2 1440,397L1440 560L0 560z" fill="#2264ab"></path></g><defs><mask id="SvgjsMask1010"><rect width="1440" height="560" fill="#ffffff"></rect></mask></defs></svg>